<?xml version="1.0" encoding="UTF-8"?><svg id="Layer_1" xmlns="http://www.w3.org/2000/svg" viewBox="0 0 722.55 207.79"><defs><style>.cls-1{fill:#2ff19e;}</style></defs><path class="cls-1" d="M159.51.03c-16.69,0-33.66,7.02-44.49,18.15l6.15,12.29-2.6,2.08C107.09,12.75,85.98.03,63.51.03,28.4.03,0,30.76,0,66.75v77.55c-.03.66.08,1.32.32,1.94.24.62.6,1.18,1.07,1.65.47.47,1.03.83,1.65,1.07.62.24,1.28.35,1.94.32h25.47c1.23,0,2.42-.49,3.29-1.36.87-.87,1.36-2.06,1.36-3.29v-78.47c0-17.85,10.83-32.48,29.27-32.48,17.26,0,29.55,12.87,29.55,31.89v64.39c-.04.64.04,1.28.26,1.88.21.6.55,1.15.99,1.62.44.47.96.84,1.55,1.09.59.25,1.22.38,1.86.38h24.34c.64,0,1.27-.13,1.86-.38.59-.25,1.11-.62,1.55-1.09.44-.47.77-1.02.99-1.62.21-.6.3-1.24.26-1.88v-64.39c0-19.02,12.88-31.89,30.14-31.89,18.44,0,28.68,14.63,28.68,32.48v78.44c.06,1.27.61,2.47,1.54,3.34s2.16,1.34,3.43,1.32h25.14c.66.03,1.32-.08,1.94-.32.62-.24,1.18-.61,1.65-1.07.47-.47.83-1.03,1.07-1.65s.35-1.28.32-1.94v-77.53C221.49,30.76,194.27.03,159.44.03"/><path class="cls-1" d="M310.26,119.44c-25.14,0-42.72-17.86-42.72-43.03s17.55-43.61,42.72-43.61,43.62,18.15,43.62,43.61-18.15,43.03-43.62,43.03ZM387.24,2.95h-23.16c-.64-.04-1.28.04-1.88.26-.6.21-1.16.55-1.62.99-.47.44-.84.97-1.09,1.55-.25.59-.38,1.22-.38,1.86v3.22l8.19,12.88-2.21,2.22c-13.52-15.35-32.84-25.92-54.86-25.92-41.56,0-75.8,33.95-75.8,76.35.05,20.09,8.05,39.34,22.26,53.54,14.2,14.2,33.45,22.21,53.54,22.26,22.19,0,41.65-10.49,55.17-25.85l1.86,1.56-8.12,13.5v2.92c0,.66.12,1.31.37,1.91.25.61.61,1.16,1.08,1.62.46.46,1.02.83,1.62,1.08s1.26.37,1.91.37h23.12c.66.03,1.32-.08,1.94-.32.62-.24,1.18-.61,1.65-1.07.47-.47.83-1.03,1.07-1.65.24-.62.35-1.28.32-1.94V7.64c0-2.92-2.05-4.66-4.97-4.66"/><path class="cls-1" d="M640.63,119.44c-25.14,0-42.72-17.86-42.72-43.03s17.55-43.61,42.72-43.61,43.61,18.15,43.61,43.61-18.15,43.03-43.61,43.03ZM717.61,2.95h-23.12c-.63-.04-1.28.04-1.88.26-.61.21-1.16.55-1.62.99-.47.44-.84.97-1.09,1.55-.26.59-.39,1.22-.38,1.86v3.22l8.19,12.88-2.2,2.22c-13.52-15.35-32.84-25.92-54.86-25.92-41.56,0-75.8,33.95-75.8,76.35.05,20.09,8.05,39.34,22.26,53.54,14.2,14.2,33.45,22.21,53.54,22.26,22.19,0,41.65-10.49,55.17-25.85l1.86,1.56-8.2,13.46v2.92c0,.66.12,1.31.37,1.91.25.61.61,1.16,1.08,1.62.46.46,1.01.83,1.62,1.08.61.25,1.25.37,1.91.37h23.12c.66.03,1.32-.08,1.94-.32.61-.24,1.18-.61,1.64-1.07.47-.47.83-1.03,1.07-1.65.24-.62.34-1.28.31-1.94V7.64c0-2.92-2.05-4.66-4.97-4.66"/><path class="cls-1" d="M545.59,2.95h-23.7c-3.81,0-5.86,2.05-5.86,4.1v71.41c0,22.24-14.64,37.76-37.17,37.76-20.77,0-34.24-15.51-34.24-37.76V7.05c0-2.05-3.22-4.1-5.27-4.1h-25.46c-1.06.07-2.06.53-2.82,1.28-.75.75-1.21,1.75-1.28,2.82v71.12c0,38.05,29.85,71.12,69.06,71.12,17.73,0,34.85-6.46,48.17-18.17l1.31,1.19-10.54,14.34v5.59c0,14.63-21.95,22.82-34.82,22.82h-8.19c-2.92,0-5.27,2.05-5.27,4.66v23.42c0,2.34,2.35,4.66,5.27,4.66h8.19c39.22,0,67.9-22.83,67.9-65.85V7.05c0-2.05-2.05-4.1-5.27-4.1"/></svg>